<svg width="64" height="64" viewBox="0 0 64 64" xmlns="http://www.w3.org/2000/svg">
  <!-- Background circle -->
  <circle cx="32" cy="32" r="30" fill="#2c3e50" stroke="#34495e" stroke-width="2"/>
  
  <!-- Split design with diagonal divide -->
  <defs>
    <clipPath id="leftHalf">
      <polygon points="2,2 32,2 2,62"/>
    </clipPath>
    <clipPath id="rightHalf">
      <polygon points="32,2 62,2 62,62 32,62"/>
    </clipPath>
  </defs>
  
  <!-- Truth side (left) - Angel wing/halo theme -->
  <g clip-path="url(#leftHalf)">
    <circle cx="32" cy="32" r="30" fill="#27ae60"/>
    
    <!-- Halo -->
    <circle cx="20" cy="18" r="8" fill="none" stroke="#f1c40f" stroke-width="3" opacity="0.9"/>
    
    <!-- Angel face -->
    <circle cx="20" cy="28" r="12" fill="#ffeaa7"/>
    
    <!-- Eyes -->
    <circle cx="17" cy="25" r="1.5" fill="#2c3e50"/>
    <circle cx="23" cy="25" r="1.5" fill="#2c3e50"/>
    
    <!-- Smile -->
    <path d="M16 32 Q20 35 24 32" stroke="#2c3e50" stroke-width="2" fill="none" stroke-linecap="round"/>
    
    <!-- Wing -->
    <path d="M8 35 Q12 30 16 35 Q12 40 8 35" fill="#ecf0f1" stroke="#bdc3c7" stroke-width="1"/>
  </g>
  
  <!-- Lie side (right) - Devil horn/pitchfork theme -->
  <g clip-path="url(#rightHalf)">
    <circle cx="32" cy="32" r="30" fill="#e74c3c"/>
    
    <!-- Devil horns -->
    <path d="M38 12 L40 8 L42 12" stroke="#8b0000" stroke-width="3" fill="#8b0000" stroke-linecap="round"/>
    <path d="M46 12 L48 8 L50 12" stroke="#8b0000" stroke-width="3" fill="#8b0000" stroke-linecap="round"/>
    
    <!-- Devil face -->
    <circle cx="44" cy="28" r="12" fill="#ff6b6b"/>
    
    <!-- Eyes -->
    <circle cx="41" cy="25" r="1.5" fill="#8b0000"/>
    <circle cx="47" cy="25" r="1.5" fill="#8b0000"/>
    
    <!-- Evil grin -->
    <path d="M40 32 Q44 29 48 32" stroke="#8b0000" stroke-width="2" fill="none" stroke-linecap="round"/>
    
    <!-- Pitchfork -->
    <g transform="translate(52, 40)">
      <line x1="0" y1="0" x2="0" y2="15" stroke="#8b0000" stroke-width="2"/>
      <path d="M-3,-2 L0,0 L3,-2" stroke="#8b0000" stroke-width="2" fill="none" stroke-linecap="round"/>
    </g>
  </g>
  
  <!-- Diagonal separator line -->
  <line x1="2" y1="2" x2="62" y2="62" stroke="#34495e" stroke-width="3"/>
  
  <!-- Game-style border effect -->
  <circle cx="32" cy="32" r="30" fill="none" stroke="#ecf0f1" stroke-width="1" opacity="0.3"/>
</svg>